# WaveFront *.obj file (generated by CINEMA 4D)

mtllib ./battery.mtl

v -6.09999990463257 10 5.19999980926514
v -6.09999990463257 10.19999980926514 5.19999980926514
v 6.09999990463257 10 5.19999980926514
v 6.09999990463257 10.19999980926514 5.19999980926514
v 6.09999990463257 10 -5.19999980926514
v 6.09999990463257 10.19999980926514 -5.19999980926514
v -6.09999990463257 10 -5.19999980926514
v -6.09999990463257 10.19999980926514 -5.19999980926514
v -6.09999990463257 5.30000019073486 5.19999980926514
v -6.09999990463257 5.5 5.19999980926514
v 6.09999990463257 5.30000019073486 5.19999980926514
v 6.09999990463257 5.5 5.19999980926514
v 6.09999990463257 5.30000019073486 -5.19999980926514
v 6.09999990463257 5.5 -5.19999980926514
v -6.09999990463257 5.30000019073486 -5.19999980926514
v -6.09999990463257 5.5 -5.19999980926514
v -6.09999990463257 0.5 5.19999980926514
v -6.09999990463257 0.69999998807907 5.19999980926514
v 6.09999990463257 0.5 5.19999980926514
v 6.09999990463257 0.69999998807907 5.19999980926514
v 6.09999990463257 0.5 -5.19999980926514
v 6.09999990463257 0.69999998807907 -5.19999980926514
v -6.09999990463257 0.5 -5.19999980926514
v -6.09999990463257 0.69999998807907 -5.19999980926514
v 5.69999980926514 0 -4.80000019073486
v 5.69999980926514 10.19999980926514 -4.80000019073486
v 6.09999990463257 0 -4.80000019073486
v 6.09999990463257 10.19999980926514 -4.80000019073486
v 6.09999990463257 0 -5.19999980926514
v 5.69999980926514 0 -5.19999980926514
v 5.69999980926514 10.19999980926514 -5.19999980926514
v -6.09999990463257 0 -4.80000019073486
v -6.09999990463257 10.19999980926514 -4.80000019073486
v -5.69999980926514 0 -4.80000019073486
v -5.69999980926514 10.19999980926514 -4.80000019073486
v -5.69999980926514 0 -5.19999980926514
v -5.69999980926514 10.19999980926514 -5.19999980926514
v -6.09999990463257 0 -5.19999980926514
v -6.09999990463257 0 5.19999980926514
v -5.69999980926514 0 5.19999980926514
v -5.69999980926514 10.19999980926514 5.19999980926514
v -5.69999980926514 0 4.80000019073486
v -5.69999980926514 10.19999980926514 4.80000019073486
v -6.09999990463257 0 4.80000019073486
v -6.09999990463257 10.19999980926514 4.80000019073486
v 5.69999980926514 0 5.19999980926514
v 5.69999980926514 10.19999980926514 5.19999980926514
v 6.09999990463257 0 5.19999980926514
v 6.09999990463257 0 4.80000019073486
v 6.09999990463257 10.19999980926514 4.80000019073486
v 5.69999980926514 0 4.80000019073486
v 5.69999980926514 10.19999980926514 4.80000019073486
v -5.44700622558594 5.51318788528442 -4.87271928787231
v -5.44700622558594 9.83009433746338 -4.87271928787231
v -5.44700622558594 5.51318788528442 5.12728071212769
v -5.44700622558594 9.83009433746338 5.12728071212769
v -2.85686254501343 5.51318788528442 5.12728071212769
v -2.85686254501343 9.83009433746338 5.12728071212769
v -2.85686254501343 5.51318788528442 -4.87271928787231
v -2.85686254501343 9.83009433746338 -4.87271928787231
v -2.68418645858765 5.51318788528442 -4.87271928787231
v -2.68418645858765 9.83009433746338 -4.87271928787231
v -2.68418645858765 5.51318788528442 5.12728071212769
v -2.68418645858765 9.83009433746338 5.12728071212769
v -0.0940423309803 5.51318788528442 5.12728071212769
v -0.0940423309803 9.83009433746338 5.12728071212769
v -0.0940423309803 5.51318788528442 -4.87271928787231
v -0.0940423309803 9.83009433746338 -4.87271928787231
v 0.07863377034664 5.51318788528442 -4.87271928787231
v 0.07863377034664 9.83009433746338 -4.87271928787231
v 0.07863377034664 5.51318788528442 5.12728071212769
v 0.07863377034664 9.83009433746338 5.12728071212769
v 2.66877770423889 5.51318788528442 5.12728071212769
v 2.66877770423889 9.83009433746338 5.12728071212769
v 2.66877770423889 5.51318788528442 -4.87271928787231
v 2.66877770423889 9.83009433746338 -4.87271928787231
v 2.84145402908325 5.51318788528442 -4.87271928787231
v 2.84145402908325 9.83009433746338 -4.87271928787231
v 2.84145402908325 5.51318788528442 5.12728071212769
v 2.84145402908325 9.83009433746338 5.12728071212769
v 5.43159770965576 5.51318788528442 5.12728071212769
v 5.43159770965576 9.83009433746338 5.12728071212769
v 5.43159770965576 5.51318788528442 -4.87271928787231
v 5.43159770965576 9.83009433746338 -4.87271928787231
v -5.44700622558594 0.73111754655838 -4.87271928787231
v -5.44700622558594 5.04802370071411 -4.87271928787231
v -5.44700622558594 0.73111754655838 5.12728071212769
v -5.44700622558594 5.04802370071411 5.12728071212769
v -2.85686254501343 0.73111754655838 5.12728071212769
v -2.85686254501343 5.04802370071411 5.12728071212769
v -2.85686254501343 0.73111754655838 -4.87271928787231
v -2.85686254501343 5.04802370071411 -4.87271928787231
v -2.68418645858765 0.73111754655838 -4.87271928787231
v -2.68418645858765 5.04802370071411 -4.87271928787231
v -2.68418645858765 0.73111754655838 5.12728071212769
v -2.68418645858765 5.04802370071411 5.12728071212769
v -0.0940423309803 0.73111754655838 5.12728071212769
v -0.0940423309803 5.04802370071411 5.12728071212769
v -0.0940423309803 0.73111754655838 -4.87271928787231
v -0.0940423309803 5.04802370071411 -4.87271928787231
v 0.07863377034664 0.73111754655838 -4.87271928787231
v 0.07863377034664 5.04802370071411 -4.87271928787231
v 0.07863377034664 0.73111754655838 5.12728071212769
v 0.07863377034664 5.04802370071411 5.12728071212769
v 2.66877770423889 0.73111754655838 5.12728071212769
v 2.66877770423889 5.04802370071411 5.12728071212769
v 2.66877770423889 0.73111754655838 -4.87271928787231
v 2.66877770423889 5.04802370071411 -4.87271928787231
v 2.84145402908325 0.73111754655838 -4.87271928787231
v 2.84145402908325 5.04802370071411 -4.87271928787231
v 2.84145402908325 0.73111754655838 5.12728071212769
v 2.84145402908325 5.04802370071411 5.12728071212769
v 5.43159770965576 0.73111754655838 5.12728071212769
v 5.43159770965576 5.04802370071411 5.12728071212769
v 5.43159770965576 0.73111754655838 -4.87271928787231
v 5.43159770965576 5.04802370071411 -4.87271928787231
# 116 vertices

vn 0 0 1
vn 1 0 0
vn 0 0 -1
vn -1 0 0
vn 0 1 0
vn 0 -1 0
# 6 normals

vt 0 0 0
vt 0 1 0
vt 1 1 0
vt 1 0 0
# 4 texture coordinates

o battery
usemtl Metal - Teflon
f 3/4/1 4/3/1 2/2/1 1/1/1
f 5/4/2 6/3/2 4/2/2 3/1/2
f 7/4/3 8/3/3 6/2/3 5/1/3
f 1/4/4 2/3/4 8/2/4 7/1/4
f 4/4/5 6/3/5 8/2/5 2/1/5
f 5/4/6 3/3/6 1/2/6 7/1/6
f 11/4/1 12/3/1 10/2/1 9/1/1
f 13/4/2 14/3/2 12/2/2 11/1/2
f 15/4/3 16/3/3 14/2/3 13/1/3
f 9/4/4 10/3/4 16/2/4 15/1/4
f 12/4/5 14/3/5 16/2/5 10/1/5
f 13/4/6 11/3/6 9/2/6 15/1/6
f 19/4/1 20/3/1 18/2/1 17/1/1
f 21/4/2 22/3/2 20/2/2 19/1/2
f 23/4/3 24/3/3 22/2/3 21/1/3
f 17/4/4 18/3/4 24/2/4 23/1/4
f 20/4/5 22/3/5 24/2/5 18/1/5
f 21/4/6 19/3/6 17/2/6 23/1/6
f 27/4/1 28/3/1 26/2/1 25/1/1
f 29/4/2 6/3/2 28/2/2 27/1/2
f 30/4/3 31/3/3 6/2/3 29/1/3
f 25/4/4 26/3/4 31/2/4 30/1/4
f 28/4/5 6/3/5 31/2/5 26/1/5
f 29/4/6 27/3/6 25/2/6 30/1/6
f 34/4/1 35/3/1 33/2/1 32/1/1
f 36/4/2 37/3/2 35/2/2 34/1/2
f 38/4/3 8/3/3 37/2/3 36/1/3
f 32/4/4 33/3/4 8/2/4 38/1/4
f 35/4/5 37/3/5 8/2/5 33/1/5
f 36/4/6 34/3/6 32/2/6 38/1/6
f 40/4/1 41/3/1 2/2/1 39/1/1
f 42/4/2 43/3/2 41/2/2 40/1/2
f 44/4/3 45/3/3 43/2/3 42/1/3
f 39/4/4 2/3/4 45/2/4 44/1/4
f 41/4/5 43/3/5 45/2/5 2/1/5
f 42/4/6 40/3/6 39/2/6 44/1/6
f 48/4/1 4/3/1 47/2/1 46/1/1
f 49/4/2 50/3/2 4/2/2 48/1/2
f 51/4/3 52/3/3 50/2/3 49/1/3
f 46/4/4 47/3/4 52/2/4 51/1/4
f 4/4/5 50/3/5 52/2/5 47/1/5
f 49/4/6 48/3/6 46/2/6 51/1/6

usemtl Plastic Dot Grid
f 55/4/4 56/3/4 54/2/4 53/1/4
f 59/4/2 60/3/2 58/2/2 57/1/2
f 53/4/3 54/3/3 60/2/3 59/1/3
f 56/4/5 58/3/5 60/2/5 54/1/5
f 57/4/6 55/3/6 53/2/6 59/1/6
f 63/4/4 64/3/4 62/2/4 61/1/4
f 67/4/2 68/3/2 66/2/2 65/1/2
f 61/4/3 62/3/3 68/2/3 67/1/3
f 64/4/5 66/3/5 68/2/5 62/1/5
f 65/4/6 63/3/6 61/2/6 67/1/6
f 71/4/4 72/3/4 70/2/4 69/1/4
f 75/4/2 76/3/2 74/2/2 73/1/2
f 69/4/3 70/3/3 76/2/3 75/1/3
f 72/4/5 74/3/5 76/2/5 70/1/5
f 73/4/6 71/3/6 69/2/6 75/1/6
f 79/4/4 80/3/4 78/2/4 77/1/4
f 83/4/2 84/3/2 82/2/2 81/1/2
f 77/4/3 78/3/3 84/2/3 83/1/3
f 80/4/5 82/3/5 84/2/5 78/1/5
f 81/4/6 79/3/6 77/2/6 83/1/6
f 87/4/4 88/3/4 86/2/4 85/1/4
f 91/4/2 92/3/2 90/2/2 89/1/2
f 85/4/3 86/3/3 92/2/3 91/1/3
f 88/4/5 90/3/5 92/2/5 86/1/5
f 89/4/6 87/3/6 85/2/6 91/1/6
f 95/4/4 96/3/4 94/2/4 93/1/4
f 99/4/2 100/3/2 98/2/2 97/1/2
f 93/4/3 94/3/3 100/2/3 99/1/3
f 96/4/5 98/3/5 100/2/5 94/1/5
f 97/4/6 95/3/6 93/2/6 99/1/6
f 103/4/4 104/3/4 102/2/4 101/1/4
f 107/4/2 108/3/2 106/2/2 105/1/2
f 101/4/3 102/3/3 108/2/3 107/1/3
f 104/4/5 106/3/5 108/2/5 102/1/5
f 105/4/6 103/3/6 101/2/6 107/1/6
f 111/4/4 112/3/4 110/2/4 109/1/4
f 115/4/2 116/3/2 114/2/2 113/1/2
f 109/4/3 110/3/3 116/2/3 115/1/3
f 112/4/5 114/3/5 116/2/5 110/1/5
f 113/4/6 111/3/6 109/2/6 115/1/6

usemtl 材质
f 57/4/1 58/3/1 56/2/1 55/1/1
f 65/4/1 66/3/1 64/2/1 63/1/1
f 73/4/1 74/3/1 72/2/1 71/1/1
f 81/4/1 82/3/1 80/2/1 79/1/1
f 89/4/1 90/3/1 88/2/1 87/1/1
f 97/4/1 98/3/1 96/2/1 95/1/1
f 105/4/1 106/3/1 104/2/1 103/1/1
f 113/4/1 114/3/1 112/2/1 111/1/1

