# WaveFront *.obj file (generated by CINEMA 4D)

mtllib ./hygrometer.mtl

v -1 0 -0.20000000298023
v -1 8 -0.20000000298023
v -1 0 0.20000000298023
v -1 8 0.20000000298023
v 1 0 0.20000000298023
v 1 8 0.20000000298023
v 1 0 -0.20000000298023
v 1 8 -0.20000000298023
# 8 vertices

vn -1 0 0
vn 1 0 0
vn 0 0 -1
vn 0 1 0
vn 0 -1 0
vn 0 0 1
# 6 normals

vt 0 0 0
vt 0 1 0
vt 1 1 0
vt 1 0 0
# 4 texture coordinates

o hygrometer
usemtl default
f 3/4/1 4/3/1 2/2/1 1/1/1
f 7/4/2 8/3/2 6/2/2 5/1/2
f 1/4/3 2/3/3 8/2/3 7/1/3
f 4/4/4 6/3/4 8/2/4 2/1/4
f 5/4/5 3/3/5 1/2/5 7/1/5

usemtl 材质.1
f 5/4/6 6/3/6 4/2/6 3/1/6

